<svg version="1.1" id="Layer_1" xmlns="http://www.w3.org/2000/svg" xmlns:xlink="http://www.w3.org/1999/xlink" x="0px" y="0px"
	 width="100%" viewBox="0 0 333 143" enable-background="new 0 0 333 143" xml:space="preserve">
<path fill="#011077" opacity="1.000000" stroke="none" 
	d="
M250.000000,144.000000 
	C166.666672,144.000000 83.833351,144.000000 1.000022,144.000000 
	C1.000015,96.333351 1.000015,48.666698 1.000007,1.000035 
	C111.999969,1.000023 222.999939,1.000023 333.999939,1.000012 
	C333.999939,48.666630 333.999939,96.333260 333.999969,143.999939 
	C306.166656,144.000000 278.333344,144.000000 250.000000,144.000000 
M232.073044,120.628418 
	C233.564041,120.465706 235.053329,120.285301 236.546280,120.142975 
	C252.977966,118.576668 260.670441,112.397736 262.978088,96.196358 
	C264.559967,85.090576 264.841675,73.596420 264.035858,62.395935 
	C262.347748,38.932617 254.006927,31.460720 230.426880,30.913998 
	C217.005859,30.602821 203.571716,30.857746 190.035202,30.857746 
	C190.035202,60.992893 190.035202,90.740440 190.035202,120.707985 
	C203.899521,120.707985 217.521408,120.707985 232.073044,120.628418 
M72.498230,30.407755 
	C65.726196,30.407755 58.954155,30.407755 52.001232,30.407755 
	C43.130482,60.680847 34.386017,90.522972 25.608503,120.477890 
	C36.453823,120.477890 46.529797,120.477890 56.528267,120.477890 
	C57.445995,116.927750 58.273960,113.724876 59.102013,110.521652 
	C66.441498,110.521652 73.544487,110.521652 80.676689,110.521652 
	C81.649002,114.058014 82.558640,117.366386 83.427406,120.526138 
	C94.558517,120.526138 105.280655,120.526138 116.595490,120.526138 
	C107.874817,90.302589 99.281136,60.519165 90.592827,30.407782 
	C84.781334,30.407782 79.139023,30.407782 72.498230,30.407755 
M155.062042,87.454224 
	C155.062042,68.549118 155.062042,49.644016 155.062042,30.781059 
	C144.336838,30.781059 134.285110,30.781059 124.290283,30.781059 
	C124.290283,60.901699 124.290283,90.648941 124.290283,120.604721 
	C142.959579,120.604721 161.366135,120.604721 180.384766,120.604721 
	C179.390015,112.333313 178.430786,104.357292 177.416229,95.921272 
	C169.670197,95.921272 162.443680,95.921272 155.062042,95.921272 
	C155.062042,93.073647 155.062042,90.755493 155.062042,87.454224 
M307.138428,46.502640 
	C307.138428,41.252533 307.138428,36.002426 307.138428,30.778248 
	C296.409851,30.778248 286.356842,30.778248 276.332184,30.778248 
	C276.332184,60.878330 276.332184,90.607849 276.332184,120.558426 
	C286.631836,120.558426 296.680695,120.558426 307.138428,120.558426 
	C307.138428,96.026260 307.138428,71.764069 307.138428,46.502640 
z"/>
<path fill="#FDFDFE" opacity="1.000000" stroke="none" 
	d="
M231.608170,120.668198 
	C217.521408,120.707985 203.899521,120.707985 190.035202,120.707985 
	C190.035202,90.740440 190.035202,60.992893 190.035202,30.857746 
	C203.571716,30.857746 217.005859,30.602821 230.426880,30.913998 
	C254.006927,31.460720 262.347748,38.932617 264.035858,62.395935 
	C264.841675,73.596420 264.559967,85.090576 262.978088,96.196358 
	C260.670441,112.397736 252.977966,118.576668 236.546280,120.142975 
	C235.053329,120.285301 233.564041,120.465706 231.608170,120.668198 
M233.787109,73.550514 
	C233.421875,68.419861 233.465622,63.218136 232.589432,58.176281 
	C231.456146,51.655006 227.924896,49.644409 221.096313,50.786079 
	C221.096313,67.486534 221.096313,84.201759 221.096313,100.900932 
	C228.975082,101.338860 232.153458,98.936432 232.941818,91.440590 
	C233.531296,85.835587 233.530899,80.168549 233.787109,73.550514 
z"/>
<path fill="#FCFCFD" opacity="1.000000" stroke="none" 
	d="
M72.997467,30.407768 
	C79.139023,30.407782 84.781334,30.407782 90.592827,30.407782 
	C99.281136,60.519165 107.874817,90.302589 116.595490,120.526138 
	C105.280655,120.526138 94.558517,120.526138 83.427406,120.526138 
	C82.558640,117.366386 81.649002,114.058014 80.676689,110.521652 
	C73.544487,110.521652 66.441498,110.521652 59.102013,110.521652 
	C58.273960,113.724876 57.445995,116.927750 56.528267,120.477890 
	C46.529797,120.477890 36.453823,120.477890 25.608503,120.477890 
	C34.386017,90.522972 43.130482,60.680847 52.001232,30.407755 
	C58.954155,30.407755 65.726196,30.407755 72.997467,30.407768 
M75.974007,85.516899 
	C74.045029,75.992645 72.116051,66.468399 70.187073,56.944149 
	C69.898918,56.975319 69.610764,57.006485 69.322609,57.037655 
	C67.154930,68.270180 64.987251,79.502708 62.777390,90.953842 
	C67.840988,90.953842 72.264565,90.953842 76.928658,90.953842 
	C76.607651,89.244110 76.337906,87.807434 75.974007,85.516899 
z"/>
<path fill="#FCFCFD" opacity="1.000000" stroke="none" 
	d="
M155.062042,87.945786 
	C155.062042,90.755493 155.062042,93.073647 155.062042,95.921272 
	C162.443680,95.921272 169.670197,95.921272 177.416229,95.921272 
	C178.430786,104.357292 179.390015,112.333313 180.384766,120.604721 
	C161.366135,120.604721 142.959579,120.604721 124.290283,120.604721 
	C124.290283,90.648941 124.290283,60.901699 124.290283,30.781059 
	C134.285110,30.781059 144.336838,30.781059 155.062042,30.781059 
	C155.062042,49.644016 155.062042,68.549118 155.062042,87.945786 
z"/>
<path fill="#FCFCFD" opacity="1.000000" stroke="none" 
	d="
M307.138428,47.002254 
	C307.138428,71.764069 307.138428,96.026260 307.138428,120.558426 
	C296.680695,120.558426 286.631836,120.558426 276.332184,120.558426 
	C276.332184,90.607849 276.332184,60.878330 276.332184,30.778248 
	C286.356842,30.778248 296.409851,30.778248 307.138428,30.778248 
	C307.138428,36.002426 307.138428,41.252533 307.138428,47.002254 
z"/>
<path fill="#051479" opacity="1.000000" stroke="none" 
	d="
M233.790131,74.039825 
	C233.530899,80.168549 233.531296,85.835587 232.941818,91.440590 
	C232.153458,98.936432 228.975082,101.338860 221.096313,100.900932 
	C221.096313,84.201759 221.096313,67.486534 221.096313,50.786079 
	C227.924896,49.644409 231.456146,51.655006 232.589432,58.176281 
	C233.465622,63.218136 233.421875,68.419861 233.790131,74.039825 
z"/>
<path fill="#09197B" opacity="1.000000" stroke="none" 
	d="
M76.021088,85.943832 
	C76.337906,87.807434 76.607651,89.244110 76.928658,90.953842 
	C72.264565,90.953842 67.840988,90.953842 62.777390,90.953842 
	C64.987251,79.502708 67.154930,68.270180 69.322609,57.037655 
	C69.610764,57.006485 69.898918,56.975319 70.187073,56.944149 
	C72.116051,66.468399 74.045029,75.992645 76.021088,85.943832 
z"/>
</svg>