<svg id="logosandtypes_com" xmlns="http://www.w3.org/2000/svg" viewBox="0 0 150 150"><path d="M0 0h150v150H0V0z" fill="none"/><defs><path id="a" d="M101.1 106.4c-3.1 0-5.9-.4-8.7-1.1-4.5 6.2-10.3 11.5-17 15.2 5.9 3.2 12.6 5.2 19.7 5.2 27.2 0 45.8-28.3 47.9-52.4-.8 3.1-6.4 33.1-41.9 33.1z"/></defs><defs><path id="b" d="M107.9 31.1c-13.1 0-19.4 7.6-19.4 7.6 13.5 1.4 30.1 10.9 30.1 30.7 0 19.2-12.6 27.9-22.8 30.8-1 1.8-2.2 3.5-3.4 5.2 2.4.7 5.7 1.1 8.7 1.1 35.5 0 41.1-30 42-33.2.2-1.6.2-3.2.2-4.8 0-27-20.6-37.4-35.4-37.4z"/></defs><defs><path id="c" d="M49.8 106.4c7.5 0 14.1-2.3 19.4-6-1.8.5-4 1-6.3 1-10 0-30.6-7.4-30.6-32 0-19.8 16.6-29.3 30.1-30.7 0 0-6.3-7.6-19.4-7.6-14.8 0-35.4 10.3-35.4 37.3 0 1.6.1 3.2.2 4.8.9 3.3 6.4 33.2 42 33.2z"/></defs><defs><path id="d" d="M63.2 101.9c2.2 0 4.2-.3 6-1.5 2.4-1.7 4.6-3.7 6.4-5.9-1.3-1.6-7.1-9.4-7.1-19.9 0-9.8 5.3-14 7-15.1-3.6-2.7-7.7-3.5-10-3.5-3.7 0-13.8 2.6-16.2 14.1-.1.5-.2.9-.2 1.4-.2 1.9-.4 4-.4 6.4 0 9.2 4.2 18 7.3 23.1 2.6.6 5.1.9 7.2.9z"/></defs><defs><path id="e" d="M75.6 46.8c-16.4 0-24.3 12.1-26.3 23.2 2.4-11.5 12.4-13.8 15.3-13.9 3.5-.2 7 .7 10.9 3.3 3.9 2.9 7.3 7.9 7.3 15.8 0 6.8-2.6 13.7-7.3 19.3-5.8 7-14.8 11.9-25.8 11.9-35.6 0-41.1-29.9-42-33.1 2.2 24.1 20.7 52.4 47.9 52.4 26.6 0 46.9-26.8 46.9-49.3.2-15.6-8.7-29.6-26.9-29.6z"/></defs><defs><path id="f" d="M76.1 37.7s-5.7-5.5-6.1-12.9c-.2-5.4 2-13.7 10.5-18.3 20-10.7 37.4 4.9 35.4 15 0 0-14.9-6.8-28.7 1.3-10 6-11.1 14.9-11.1 14.9z"/></defs><linearGradient id="g" gradientUnits="userSpaceOnUse" x1="-.6855" y1="151.3546" x2="-.4228" y2="151.3546" gradientTransform="scale(219.547 -219.547) rotate(44.6286 184.4361 76.8038)"><stop offset="0" stop-color="#55b83b"/><stop offset="1" stop-color="#a6d93d"/></linearGradient><path d="M76.1 37.7s-5.7-5.5-6.1-12.9c-.2-5.4 2-13.7 10.5-18.3 20-10.7 37.4 4.9 35.4 15 0 0-14.9-6.8-28.7 1.3-10 6-11.1 14.9-11.1 14.9" fill="url(#g)"/><linearGradient id="h" gradientUnits="userSpaceOnUse" x1="-.0523" y1="149.3787" x2=".2177" y2="149.3787" gradientTransform="scale(-367.505 367.505) rotate(90 74.5974 74.6769)"><stop offset="0" stop-color="#31ad45"/><stop offset=".7473" stop-color="#a6d93d"/><stop offset="1" stop-color="#a6d93d"/></linearGradient><path d="M69.2 100.4c-1.8.5-4 1-6.3 1-10 0-30.6-7.4-30.6-32 0-19.8 16.6-29.3 30.1-30.7 0 0-6.3-7.6-19.4-7.6-14.8 0-35.4 10.3-35.4 37.3 0 1.6.1 3.2.2 4.8.9 3.2 6.9 35.2 42.5 35.2 0 .1 17.2-2 18.9-8z" fill="url(#h)"/><linearGradient id="i" gradientUnits="userSpaceOnUse" x1="-.8076" y1="148.3705" x2="-.5302" y2="148.3705" gradientTransform="matrix(0 181.0287 181.0287 0 -26797.1953 200.6888)"><stop offset="0" stop-color="#219b49"/><stop offset=".1868" stop-color="#219b49"/><stop offset=".7802" stop-color="#a6d93d"/><stop offset="1" stop-color="#a6d93d"/></linearGradient><path d="M64.1 103.4c2.2 0 6.9-1.5 6.9-1.5 2.4-1.7 2.8-5.2 4.6-7.4-1.3-1.6-7.1-9.4-7.1-19.9 0-9.8 5.3-14 7-15.1-3.6-2.7-7.6-4.6-10-4.6-3.7 0-13.9 3.7-16.3 15.2-.1.5-.2.9-.2 1.4-.2 1.9-.4 4-.4 6.4 0 9.2 4.2 18 7.3 23.1 2.7.6 8.2 2.4 8.2 2.4z" fill="url(#i)"/><linearGradient id="j" gradientUnits="userSpaceOnUse" x1="-.0515" y1="148.7877" x2=".216" y2="148.7877" gradientTransform="scale(-367.8888 367.8888) rotate(90 74.1968 74.2759)"><stop offset="0" stop-color="#31ad45"/><stop offset=".7473" stop-color="#a6d93d"/><stop offset="1" stop-color="#a6d93d"/></linearGradient><path d="M107.9 31.1c-13.1 0-19.4 7.6-19.4 7.6 13.5 1.4 30.1 10.9 30.1 30.7 0 19.2-12.6 27.9-22.8 30.8-3.3 1.7-4 3.3-3.4 5.2 2.4.7 5.6 2.5 8.7 2.5 35.5 0 41.1-31.4 42-34.6.2-1.6.2-3.2.2-4.8 0-27-20.6-37.4-35.4-37.4" fill="url(#j)"/><linearGradient id="k" gradientUnits="userSpaceOnUse" x1="3.2387" y1="149.0476" x2="3.5014" y2="149.0476" gradientTransform="scale(-167.2038 167.2038) rotate(-13.134 -643.4563 92.3274)"><stop offset="0" stop-color="#219b49"/><stop offset=".1209" stop-color="#219b4a"/><stop offset="1" stop-color="#a6d93d"/></linearGradient><path d="M101.1 106.4c-3.1 0-5.9-.4-8.7-1.1-8.8 3.3-13.3 10.6-17 15.2 5.9 3.2 12.6 5.2 19.7 5.2 27.2 0 45.8-28.3 47.9-52.4-.8 3.1-6.4 33.1-41.9 33.1" fill="url(#k)"/><linearGradient id="l" gradientUnits="userSpaceOnUse" x1=".4819" y1="150.6052" x2=".7446" y2="150.6052" gradientTransform="scale(527.6657 -527.6657) rotate(75.153 98.2965 74.929)"><stop offset="0" stop-color="#219b49"/><stop offset=".0549" stop-color="#219b4a"/><stop offset=".522" stop-color="#a6d93d"/><stop offset="1" stop-color="#a6d93d"/></linearGradient><path d="M75.6 46.8c-16.4 0-24.3 12.1-26.3 23.2 2.4-11.5 12.4-13.8 15.3-13.9 3.5-.2 7 .7 10.9 3.3 3.9 2.9 7.3 7.9 7.3 15.8 0 6.8-2.6 13.7-7.3 19.3-5.8 7-14.8 11.9-25.8 11.9-35.6 0-41.1-29.9-42-33.1 2.2 24.1 20.7 52.4 47.9 52.4 26.6 0 46.9-26.8 46.9-49.3.2-15.6-8.7-29.6-26.9-29.6" fill="url(#l)"/></svg>